<svg width="621" height="697" viewBox="0 0 621 697" fill="none" xmlns="http://www.w3.org/2000/svg">
<path d="M146 696.637L129.284 692.101L141.57 679.892L146 696.637ZM618.782 71.4541C616.677 70.307 614.574 69.1755 612.474 68.0596L613.881 65.4103C615.991 66.5311 618.103 67.6676 620.218 68.8198L618.782 71.4541ZM599.9 61.5504C595.719 59.4425 591.548 57.3962 587.388 55.4108L588.68 52.7033C592.86 54.6981 597.05 56.754 601.251 58.8716L599.9 61.5504ZM574.939 49.6368C570.575 47.6709 566.222 45.772 561.883 43.9393L563.05 41.1757C567.411 43.0176 571.785 44.926 576.171 46.9015L574.939 49.6368ZM548.899 38.637C544.584 36.9353 540.282 35.2989 535.994 33.7272L537.026 30.9104C541.337 32.4906 545.662 34.1356 549.999 35.8462L548.899 38.637ZM522.728 29.0549C518.248 27.5413 513.784 26.0983 509.336 24.7249L510.221 21.8584C514.694 23.2397 519.183 24.6908 523.688 26.2127L522.728 29.0549ZM496.042 20.8124C491.519 19.5469 487.013 18.3534 482.526 17.231L483.254 14.3206C487.768 15.4499 492.301 16.6504 496.85 17.9234L496.042 20.8124ZM468.813 14.0079C464.261 13.0071 459.73 12.0796 455.218 11.2243L455.777 8.27679C460.317 9.13756 464.877 10.0709 469.457 11.0778L468.813 14.0079ZM441.454 8.82729C436.789 8.08706 432.146 7.4243 427.527 6.83775L427.905 3.86165C432.555 4.45213 437.228 5.11928 441.924 5.86434L441.454 8.82729ZM413.742 5.30554C409.062 4.85976 404.407 4.4926 399.779 4.20274L399.967 1.20862C404.627 1.50051 409.314 1.87022 414.027 2.31906L413.742 5.30554ZM385.766 3.55759C381.123 3.42129 376.508 3.36327 371.922 3.38214L371.91 0.382168C376.53 0.363156 381.178 0.421593 385.855 0.558884L385.766 3.55759ZM357.86 3.6831C353.177 3.86487 348.526 4.12746 343.908 4.46934L343.686 1.47751C348.34 1.13304 353.026 0.868479 357.744 0.685352L357.86 3.6831ZM330.093 5.73778C325.405 6.25233 320.753 6.84936 316.138 7.5272L315.702 4.55906C320.353 3.87589 325.042 3.27421 329.766 2.75569L330.093 5.73778ZM302.403 9.8015C297.801 10.6506 293.238 11.581 288.715 12.591L288.061 9.66312C292.621 8.64502 297.221 7.70718 301.859 6.8513L302.403 9.8015ZM275.113 15.898C270.62 17.0806 266.169 18.3427 261.762 19.6827L260.889 16.8124C265.333 15.4614 269.82 14.189 274.349 12.9969L275.113 15.898ZM248.404 24.0257C243.996 25.5532 239.634 27.1599 235.32 28.8438L234.229 26.0491C238.579 24.3512 242.977 22.7313 247.421 21.1911L248.404 24.0257ZM222.414 34.1703C218.127 36.0378 213.89 37.983 209.703 40.004L208.399 37.3023C212.62 35.2644 216.893 33.3029 221.216 31.4199L222.414 34.1703ZM197.29 46.2964C193.157 48.4937 189.077 50.7666 185.051 53.113L183.54 50.5212C187.6 48.1551 191.714 45.8632 195.882 43.6475L197.29 46.2964ZM173.141 60.3708C169.204 62.876 165.325 65.4535 161.503 68.1012L159.794 65.6351C163.648 62.9653 167.561 60.3661 171.53 57.8399L173.141 60.3708ZM150.176 76.2795C146.454 79.0785 142.793 81.9462 139.192 84.8804L137.297 82.5547C140.927 79.596 144.62 76.7044 148.372 73.882L150.176 76.2795ZM128.528 93.9211C125.035 97.0004 121.606 100.145 118.24 103.352L116.171 101.18C119.564 97.9463 123.022 94.7759 126.543 91.6709L128.528 93.9211ZM108.313 113.185C105.068 116.526 101.888 119.929 98.7759 123.39L96.5451 121.384C99.683 117.894 102.889 114.464 106.161 111.095L108.313 113.185ZM89.6389 133.951C86.6602 137.53 83.7501 141.166 80.91 144.857L78.5325 143.027C81.3958 139.306 84.3298 135.64 87.333 132.032L89.6389 133.951ZM72.602 156.089C69.9068 159.882 67.2827 163.727 64.731 167.622L62.2216 165.978C64.7939 162.051 67.4394 158.175 70.1567 154.351L72.602 156.089ZM57.2949 179.455C54.8949 183.439 52.5685 187.47 50.3168 191.547L47.6907 190.097C49.9605 185.987 52.3057 181.923 54.7251 177.907L57.2949 179.455ZM43.7936 203.902C41.6981 208.057 39.6783 212.256 37.7355 216.495L35.0082 215.245C36.9665 210.972 39.0026 206.74 41.1149 202.551L43.7936 203.902ZM32.1583 229.29C30.3767 233.594 28.6728 237.937 27.0482 242.317L24.2355 241.273C25.8731 236.859 27.5905 232.481 29.3864 228.143L32.1583 229.29ZM22.4404 255.478C20.9843 259.897 19.6076 264.35 18.3115 268.835L15.4295 268.002C16.7358 263.482 18.1235 258.993 19.5911 254.539L22.4404 255.478ZM14.6812 282.323C13.5569 286.829 12.513 291.364 11.5508 295.926L8.61539 295.307C9.58514 290.709 10.6372 286.138 11.7704 281.597L14.6812 282.323ZM8.91196 309.684C8.12299 314.248 7.41519 318.836 6.78966 323.447L3.81688 323.044C4.4473 318.397 5.16065 313.773 5.9558 309.173L8.91196 309.684ZM5.16121 337.347C4.70515 341.965 4.33124 346.603 4.04077 351.259L1.0466 351.072C1.33933 346.38 1.71612 341.706 2.17572 337.052L5.16121 337.347ZM3.42259 365.205C3.29998 369.863 3.26069 374.538 3.30594 379.228L0.306081 379.257C0.260505 374.531 0.300046 369.82 0.423644 365.126L3.42259 365.205ZM3.68702 393.131C3.89683 397.778 4.18984 402.438 4.5671 407.108L1.57683 407.349C1.19673 402.644 0.901486 397.949 0.690046 393.266L3.68702 393.131ZM5.9357 421C6.47048 425.6 7.08746 430.208 7.78761 434.823L4.82155 435.273C4.11618 430.623 3.49459 425.981 2.95578 421.346L5.9357 421ZM10.1387 448.686C10.9878 453.213 11.9175 457.746 12.929 462.282L10.0009 462.934C8.98205 458.366 8.04545 453.8 7.19012 449.239L10.1387 448.686ZM16.2061 475.885C17.3712 480.385 18.6175 484.886 19.9459 489.388L17.0686 490.237C15.7307 485.703 14.4754 481.169 13.3019 476.637L16.2061 475.885ZM24.0992 502.652C25.5634 507.073 27.1079 511.492 28.7333 515.908L25.918 516.944C24.2812 512.497 22.7259 508.047 21.2513 503.595L24.0992 502.652ZM33.7604 528.915C35.4939 533.196 37.3046 537.472 39.1933 541.743L36.4497 542.956C34.5482 538.657 32.7251 534.351 30.9798 530.042L33.7604 528.915ZM45.0947 554.538C47.0869 558.685 49.1538 562.825 51.2964 566.958L48.633 568.339C46.4765 564.179 44.3959 560.011 42.3905 555.837L45.0947 554.538ZM57.9045 579.249C60.1823 583.338 62.5353 587.417 64.9645 591.487L62.3884 593.025C59.9441 588.929 57.5761 584.824 55.2838 580.709L57.9045 579.249ZM72.2262 603.266C74.7092 607.168 77.2635 611.059 79.8898 614.939L77.4054 616.621C74.7633 612.718 72.1935 608.802 69.6952 604.877L72.2262 603.266ZM87.9853 626.544C90.6568 630.262 93.3959 633.969 96.2031 637.662L93.8146 639.478C90.9912 635.763 88.2363 632.035 85.549 628.295L87.9853 626.544ZM104.793 648.659C107.724 652.311 110.723 655.95 113.791 659.574L111.501 661.513C108.417 657.868 105.401 654.209 102.453 650.536L104.793 648.659ZM122.883 670.045C125.947 673.486 129.074 676.913 132.265 680.324L130.074 682.374C126.866 678.944 123.723 675.499 120.643 672.04L122.883 670.045Z" fill="#034D82" fill-opacity="0.19"/>
</svg>
