<svg width="42" height="40" viewBox="0 0 42 40" fill="none" xmlns="http://www.w3.org/2000/svg">
<g clip-path="url(#clip0_1_807)">
<rect opacity="0.1" width="42" height="40" rx="20" fill="#D5E2E4"/>
<path d="M28.9584 20.5208C28.9584 20.0208 28.8959 19.6458 28.8334 19.2395H21.4584V21.8958H25.8334C25.6771 23.052 24.5209 25.2395 21.4584 25.2395C18.8021 25.2395 16.6459 23.052 16.6459 20.3333C16.6459 15.9895 21.7709 13.9895 24.5209 16.6458L26.6459 14.6145C25.3021 13.3645 23.5209 12.5833 21.4584 12.5833C17.1459 12.5833 13.7084 16.052 13.7084 20.3333C13.7084 24.6458 17.1459 28.0833 21.4584 28.0833C25.9271 28.0833 28.9584 24.9583 28.9584 20.5208Z" fill="#D3D6D8"/>
</g>
<defs>
<clipPath id="clip0_1_807">
<rect width="42" height="40" fill="white"/>
</clipPath>
</defs>
</svg>
