<svg width="40" height="40" viewBox="0 0 40 40" fill="none" xmlns="http://www.w3.org/2000/svg">
<g clip-path="url(#clip0_1_817)">
<rect opacity="0.1" width="40" height="40" rx="20" fill="#D5E2E4"/>
<path d="M20.3334 16.7395C18.3334 16.7395 16.7396 18.3645 16.7396 20.3333C16.7396 22.3333 18.3334 23.927 20.3334 23.927C22.3021 23.927 23.9271 22.3333 23.9271 20.3333C23.9271 18.3645 22.3021 16.7395 20.3334 16.7395ZM20.3334 22.677C19.0521 22.677 17.9896 21.6458 17.9896 20.3333C17.9896 19.052 19.0209 18.0208 20.3334 18.0208C21.6146 18.0208 22.6459 19.052 22.6459 20.3333C22.6459 21.6458 21.6146 22.677 20.3334 22.677ZM24.8959 16.6145C24.8959 16.1458 24.5209 15.7708 24.0521 15.7708C23.5834 15.7708 23.2084 16.1458 23.2084 16.6145C23.2084 17.0833 23.5834 17.4583 24.0521 17.4583C24.5209 17.4583 24.8959 17.0833 24.8959 16.6145ZM27.2709 17.4583C27.2084 16.3333 26.9584 15.3333 26.1459 14.5208C25.3334 13.7083 24.3334 13.4583 23.2084 13.3958C22.0521 13.3333 18.5834 13.3333 17.4271 13.3958C16.3021 13.4583 15.3334 13.7083 14.4896 14.5208C13.6771 15.3333 13.4271 16.3333 13.3646 17.4583C13.3021 18.6145 13.3021 22.0833 13.3646 23.2395C13.4271 24.3645 13.6771 25.3333 14.4896 26.177C15.3334 26.9895 16.3021 27.2395 17.4271 27.302C18.5834 27.3645 22.0521 27.3645 23.2084 27.302C24.3334 27.2395 25.3334 26.9895 26.1459 26.177C26.9584 25.3333 27.2084 24.3645 27.2709 23.2395C27.3334 22.0833 27.3334 18.6145 27.2709 17.4583ZM25.7709 24.4583C25.5521 25.0833 25.0521 25.552 24.4584 25.802C23.5209 26.177 21.3334 26.0833 20.3334 26.0833C19.3021 26.0833 17.1146 26.177 16.2084 25.802C15.5834 25.552 15.1146 25.0833 14.8646 24.4583C14.4896 23.552 14.5834 21.3645 14.5834 20.3333C14.5834 19.3333 14.4896 17.1458 14.8646 16.2083C15.1146 15.6145 15.5834 15.1458 16.2084 14.8958C17.1146 14.5208 19.3021 14.6145 20.3334 14.6145C21.3334 14.6145 23.5209 14.5208 24.4584 14.8958C25.0521 15.1145 25.5209 15.6145 25.7709 16.2083C26.1459 17.1458 26.0521 19.3333 26.0521 20.3333C26.0521 21.3645 26.1459 23.552 25.7709 24.4583Z" fill="#D3D6D8"/>
</g>
<defs>
<clipPath id="clip0_1_817">
<rect width="40" height="40" fill="white"/>
</clipPath>
</defs>
</svg>
