<svg width="40" height="40" viewBox="0 0 40 40" fill="none" xmlns="http://www.w3.org/2000/svg">
<g clip-path="url(#clip0_1_822)">
<rect opacity="0.1" width="40" height="40" rx="20" fill="#D5E2E4"/>
<path d="M26.3334 13.3333H14.3021C13.7709 13.3333 13.3334 13.802 13.3334 14.3645V26.3333C13.3334 26.8958 13.7709 27.3333 14.3021 27.3333H26.3334C26.8646 27.3333 27.3334 26.8958 27.3334 26.3333V14.3645C27.3334 13.802 26.8646 13.3333 26.3334 13.3333ZM17.5521 25.3333H15.4896V18.677H17.5521V25.3333ZM16.5209 17.7395C15.8334 17.7395 15.3021 17.2083 15.3021 16.552C15.3021 15.8958 15.8334 15.3333 16.5209 15.3333C17.1771 15.3333 17.7084 15.8958 17.7084 16.552C17.7084 17.2083 17.1771 17.7395 16.5209 17.7395ZM25.3334 25.3333H23.2396V22.0833C23.2396 21.3333 23.2396 20.3333 22.1771 20.3333C21.0834 20.3333 20.9271 21.177 20.9271 22.052V25.3333H18.8646V18.677H20.8334V19.5833H20.8646C21.1459 19.052 21.8334 18.4895 22.8334 18.4895C24.9271 18.4895 25.3334 19.8958 25.3334 21.677V25.3333Z" fill="#D3D6D8"/>
</g>
<defs>
<clipPath id="clip0_1_822">
<rect width="40" height="40" fill="white"/>
</clipPath>
</defs>
</svg>
