<svg width="133" height="39" viewBox="0 0 133 39" fill="none" xmlns="http://www.w3.org/2000/svg">
<path d="M24.2388 3.962C23.709 2.22627 21.8549 1.29165 20.1332 1.82572C18.4115 2.35979 17.4845 4.22903 18.0142 5.96476L26.4902 32.2677C27.0862 33.8699 28.8079 34.8045 30.4634 34.3372C32.1851 33.8031 33.2446 32.0006 32.7148 30.2649C32.7148 30.1981 24.2388 3.962 24.2388 3.962Z" fill="#AEC0CE"/>
<path d="M11.1275 8.30135C10.5977 6.56563 8.74357 5.63101 7.02188 6.16508C5.30019 6.69914 4.37313 8.56839 4.90288 10.3041L13.3789 36.607C13.9749 38.2092 15.6966 39.1438 17.352 38.6765C19.0737 38.1425 20.1332 36.34 19.6035 34.6042C19.6035 34.5375 11.1275 8.30135 11.1275 8.30135Z" fill="#AEC0CE"/>
<path d="M34.9663 25.7921C36.688 25.258 37.6151 23.3888 37.0853 21.653C36.5556 19.9173 34.7014 18.9827 32.9798 19.5168L6.82328 27.9951C5.23403 28.5959 4.30697 30.3317 4.7705 32.0006C5.30025 33.7363 7.08816 34.8045 8.80985 34.2704C8.94229 34.2704 34.9663 25.7921 34.9663 25.7921Z" fill="#AEC0CE"/>
<path d="M12.2532 33.2024C13.9749 32.6683 16.1601 31.934 18.4778 31.1329C17.9481 29.3971 17.2196 27.1941 16.425 24.8575L10.2004 26.9271L12.2532 33.2024Z" fill="#AEC0CE"/>
<path d="M25.4307 28.863C27.8146 28.0619 29.9998 27.3943 31.6553 26.7935C31.1255 25.0578 30.3971 22.8547 29.6025 20.5182L23.3779 22.5877L25.4307 28.863Z" fill="#AEC0CE"/>
<path d="M30.6621 12.5072C32.3838 11.9731 33.3108 10.1038 32.7811 8.36812C32.2513 6.6324 30.3972 5.69778 28.6755 6.23185L2.58525 14.777C0.995994 15.3778 0.0689291 17.1135 0.532462 18.7825C1.06221 20.585 2.85012 21.6531 4.57182 21.0523C4.63803 21.0523 30.6621 12.5072 30.6621 12.5072Z" fill="#AEC0CE"/>
<path d="M8.01519 19.9173C9.73688 19.3833 11.9221 18.6489 14.2398 17.8478C13.4451 15.4445 12.7829 13.2415 12.187 11.5725L5.9624 13.642L8.01519 19.9173Z" fill="#AEC0CE"/>
<path d="M21.1265 15.6448C23.5104 14.8437 25.6956 14.1761 27.3511 13.5752C26.5565 11.1719 25.8943 8.96889 25.2983 7.29993L19.0737 9.36944L21.1265 15.6448Z" fill="#AEC0CE"/>
<path d="M61.3876 10.9049C62.5134 11.439 62.6458 11.7728 61.7187 13.5085C60.7917 15.311 60.593 15.3777 59.4011 14.9104C57.9443 14.3096 56.1564 13.8423 54.9644 13.8423C53.0441 13.8423 51.7859 14.5099 51.7859 15.578C51.7859 19.0495 62.8445 17.1802 62.8445 24.6572C62.8445 28.3957 59.666 30.8657 54.8982 30.8657C52.3819 30.8657 49.2696 29.9979 47.1506 28.9297C46.0911 28.3957 46.0249 28.0619 46.9519 26.2594C47.7466 24.7239 48.0114 24.5237 49.1371 24.991C50.9913 25.7921 53.2427 26.3929 54.832 26.3929C56.6199 26.3929 57.7456 25.6586 57.7456 24.5904C57.7456 21.1857 46.4884 22.7879 46.4884 15.578C46.4884 11.7728 49.6669 9.16919 54.3684 9.16919C56.6199 9.36947 59.4673 10.0371 61.3876 10.9049Z" fill="#AEC0CE"/>
<path d="M70.3272 2.0928V29.8644C70.3272 30.2649 69.8637 30.7322 69.2677 30.7322H66.3541C65.6919 30.7322 65.2946 30.2649 65.2946 29.8644V2.0928C65.2946 0.690868 65.6919 0.62411 67.8109 0.62411C70.1948 0.557351 70.3272 0.757627 70.3272 2.0928Z" fill="#AEC0CE"/>
<path fill-rule="evenodd" clip-rule="evenodd" d="M90.855 29.5974V17.6476C90.855 12.4404 87.3454 9.36951 81.783 9.36951C79.2667 9.36951 76.4855 10.1706 74.499 11.5058C73.4395 12.1734 73.4395 12.5072 74.499 14.1761C75.6247 15.8451 75.8233 15.9119 76.8829 15.311C78.2072 14.5099 79.8627 13.9759 81.2533 13.9759C84.1669 13.9759 85.8886 15.311 85.8886 17.5141V18.916C84.498 18.3152 82.7763 17.9814 80.9222 17.9814C75.9558 17.9814 72.7111 20.6517 72.7111 24.6572C72.7111 28.3957 75.6247 30.9325 79.9289 30.9325C82.1804 30.9325 84.4318 29.9979 85.9548 28.2622L85.8886 29.5306C85.8224 30.1982 86.2859 30.6655 86.9481 30.6655H89.7955C90.3915 30.6655 90.855 30.265 90.855 29.5974ZM80.5249 26.927C78.737 26.927 77.545 25.9924 77.545 24.5905C77.545 22.8547 79.333 21.5196 81.9817 21.5196C83.2399 21.5196 84.6967 21.7199 85.8224 22.1872V24.0564C84.6967 25.8589 82.7101 26.927 80.5249 26.927Z" fill="#AEC0CE"/>
<path d="M110.522 10.9717C111.582 11.5725 111.582 11.9063 110.456 13.7088C109.396 15.3778 109.198 15.5113 108.006 14.9104C107.145 14.4431 105.688 14.0426 104.562 14.0426C100.92 14.0426 98.5364 16.4459 98.5364 20.1176C98.5364 23.9229 100.92 26.4597 104.562 26.4597C105.82 26.4597 107.41 25.9924 108.403 25.3915C109.463 24.7907 109.661 24.7907 110.787 26.4597C111.78 27.9951 111.78 28.3289 110.853 28.9965C109.264 30.1314 106.681 30.9993 104.43 30.9993C97.7418 30.9993 93.2389 26.66 93.2389 20.1844C93.2389 13.7088 97.7418 9.43624 104.496 9.43624C106.615 9.36948 108.999 10.0371 110.522 10.9717Z" fill="#AEC0CE"/>
<path d="M132.44 28.0619C133.301 29.1301 132.97 29.5306 130.851 30.265C128.732 31.0661 128.401 30.9993 127.673 29.9979L121.647 21.9201L118.932 24.5237V29.7977C118.932 30.1982 118.468 30.6655 117.872 30.6655H114.959C114.296 30.6655 113.899 30.1982 113.899 29.7977V2.09284C113.899 0.690904 114.296 0.624146 116.415 0.624146C118.866 0.624146 118.932 0.824421 118.932 2.09284V17.8479L127.143 9.90359C128.07 9.03573 128.534 9.10249 130.189 10.1706C131.977 11.3055 132.109 11.6393 131.249 12.5072L125.156 18.5155L132.44 28.0619Z" fill="#AEC0CE"/>
</svg>
