<svg width="42" height="40" viewBox="0 0 42 40" fill="none" xmlns="http://www.w3.org/2000/svg">
<g clip-path="url(#clip0_1_812)">
<rect opacity="0.1" width="42" height="40" rx="20" fill="#D5E2E4"/>
<path d="M27.6771 17.0833C28.3021 16.6145 28.8646 16.052 29.3021 15.3958C28.7396 15.6458 28.0834 15.8333 27.4271 15.8958C28.1146 15.4895 28.6146 14.8645 28.8646 14.0833C28.2396 14.4583 27.5209 14.7395 26.8021 14.8958C26.1771 14.2395 25.3334 13.8645 24.3959 13.8645C22.5834 13.8645 21.1146 15.3333 21.1146 17.1458C21.1146 17.3958 21.1459 17.6458 21.2084 17.8958C18.4896 17.7395 16.0521 16.427 14.4271 14.4583C14.1459 14.927 13.9896 15.4895 13.9896 16.1145C13.9896 17.2395 14.5521 18.2395 15.4584 18.8333C14.9271 18.802 14.3959 18.677 13.9584 18.427V18.4583C13.9584 20.052 15.0834 21.3645 16.5834 21.677C16.3334 21.7395 16.0209 21.802 15.7396 21.802C15.5209 21.802 15.3334 21.7708 15.1146 21.7395C15.5209 23.052 16.7396 23.9895 18.1771 24.0208C17.0521 24.8958 15.6459 25.427 14.1146 25.427C13.8334 25.427 13.5834 25.3958 13.3334 25.3645C14.7709 26.302 16.4896 26.8333 18.3646 26.8333C24.3959 26.8333 27.6771 21.8645 27.6771 17.5208C27.6771 17.3645 27.6771 17.2395 27.6771 17.0833Z" fill="#D3D6D8"/>
</g>
<defs>
<clipPath id="clip0_1_812">
<rect width="42" height="40" fill="white"/>
</clipPath>
</defs>
</svg>
